<svg xmlns="http://www.w3.org/2000/svg" viewBox="0 0 501 504"><defs><style>.cls-1{fill:#fff;}.cls-2{fill:#5d0000;}</style></defs><g id="Layer_2" data-name="Layer 2"><g id="TiewazAnimationIcon"><rect class="cls-1" x="68" y="88" width="368" height="354"/><g id="Layer_4" data-name="Layer 4"><polygon class="cls-2" points="19 1 0 1 0 504 19 504 19 1 19 1"/><polygon class="cls-2" points="71 0 52 0 52 503 71 503 71 0 71 0"/><polygon class="cls-2" points="61 37 2 37 2 76 61 76 61 37 61 37"/><polygon class="cls-2" points="61 116 2 116 2 155 61 155 61 116 61 116"/><polygon class="cls-2" points="61 195 2 195 2 234 61 234 61 195 61 195"/><polygon class="cls-2" points="61 274 2 274 2 313 61 313 61 274 61 274"/><polygon class="cls-2" points="61 353 2 353 2 392 61 392 61 353 61 353"/><polygon class="cls-2" points="61 432 2 432 2 471 61 471 61 432 61 432"/></g><g id="Layer_4_copy" data-name="Layer 4 copy"><polygon class="cls-2" points="449 1 430 1 430 504 449 504 449 1 449 1"/><polygon class="cls-2" points="501 0 482 0 482 503 501 503 501 0 501 0"/><polygon class="cls-2" points="491 37 432 37 432 76 491 76 491 37 491 37"/><polygon class="cls-2" points="491 116 432 116 432 155 491 155 491 116 491 116"/><polygon class="cls-2" points="491 195 432 195 432 234 491 234 491 195 491 195"/><polygon class="cls-2" points="491 274 432 274 432 313 491 313 491 274 491 274"/><polygon class="cls-2" points="491 353 432 353 432 392 491 392 491 353 491 353"/><polygon class="cls-2" points="491 432 432 432 432 471 491 471 491 432 491 432"/></g><polygon class="cls-2" points="438 76 71 76 71 94 438 94 438 76 438 76"/><polygon class="cls-2" points="438 433 71 433 71 451 438 451 438 433 438 433"/><g id="Layer_6" data-name="Layer 6"><circle cx="252" cy="252" r="115"/><polygon class="cls-2" points="218.44 192 218.44 310 320.63 251 218.44 192 218.44 192"/></g></g></g></svg>